<svg width="15" height="15" viewBox="0 0 15 15" fill="none" xmlns="http://www.w3.org/2000/svg">
<path d="M7.5 0C3.35826 0 0 3.35826 0 7.5C0 11.6417 3.35826 15 7.5 15C11.6417 15 15 11.6417 15 7.5C15 3.35826 11.6417 0 7.5 0ZM10.4548 9.80525L9.976 10.4581C9.96559 10.4724 9.95247 10.4844 9.9374 10.4935C9.92232 10.5026 9.90559 10.5087 9.88817 10.5113C9.87075 10.514 9.85297 10.5132 9.83587 10.5089C9.81876 10.5047 9.80267 10.4971 9.7885 10.4866L7.01953 8.46763C7.00228 8.45525 6.98826 8.4389 6.97864 8.41996C6.96903 8.40102 6.96411 8.38005 6.96429 8.35882V3.75C6.96429 3.67634 7.02455 3.61607 7.09821 3.61607H7.90346C7.97712 3.61607 8.03739 3.67634 8.03739 3.75V7.89341L10.4247 9.61942C10.4849 9.66127 10.4983 9.74498 10.4548 9.80525Z" fill="#BDDBD1"/>
</svg>
