<svg width="20" height="20" viewBox="0 0 20 20" fill="none" xmlns="http://www.w3.org/2000/svg">
<path d="M5.83333 0C5.17029 0 4.53441 0.263392 4.06557 0.732233C3.59672 1.20107 3.33333 1.83696 3.33333 2.5V6.66667C2.44928 6.66667 1.60143 7.01786 0.976311 7.64298C0.351189 8.2681 0 9.11594 0 10V17.5C0 18.163 0.263392 18.7989 0.732233 19.2678C1.20107 19.7366 1.83696 20 2.5 20H12.5C11.9579 19.2794 11.6653 18.4018 11.6667 17.5V9.16667C11.6667 8.22833 11.9767 7.36333 12.5 6.66667H5V2.5C5 2.27899 5.0878 2.06702 5.24408 1.91074C5.40036 1.75446 5.61232 1.66667 5.83333 1.66667H14.1667C14.3877 1.66667 14.5996 1.75446 14.7559 1.91074C14.9122 2.06702 15 2.27899 15 2.5V5.08333C15.27 5.02833 15.5483 5 15.8333 5H16.6667V2.5C16.6667 1.83696 16.4033 1.20107 15.9344 0.732233C15.4656 0.263392 14.8297 0 14.1667 0H5.83333ZM4.16667 11.6667C3.94565 11.6667 3.73369 11.5789 3.57741 11.4226C3.42113 11.2663 3.33333 11.0543 3.33333 10.8333C3.33333 10.6123 3.42113 10.4004 3.57741 10.2441C3.73369 10.0878 3.94565 10 4.16667 10C4.38768 10 4.59964 10.0878 4.75592 10.2441C4.9122 10.4004 5 10.6123 5 10.8333C5 11.0543 4.9122 11.2663 4.75592 11.4226C4.59964 11.5789 4.38768 11.6667 4.16667 11.6667ZM4.16667 15C3.94565 15 3.73369 14.9122 3.57741 14.7559C3.42113 14.5996 3.33333 14.3877 3.33333 14.1667C3.33333 13.9457 3.42113 13.7337 3.57741 13.5774C3.73369 13.4211 3.94565 13.3333 4.16667 13.3333C4.38768 13.3333 4.59964 13.4211 4.75592 13.5774C4.9122 13.7337 5 13.9457 5 14.1667C5 14.3877 4.9122 14.5996 4.75592 14.7559C4.59964 14.9122 4.38768 15 4.16667 15ZM8.33333 10.8333C8.33333 11.0543 8.24554 11.2663 8.08926 11.4226C7.93297 11.5789 7.72101 11.6667 7.5 11.6667C7.27899 11.6667 7.06702 11.5789 6.91074 11.4226C6.75446 11.2663 6.66667 11.0543 6.66667 10.8333C6.66667 10.6123 6.75446 10.4004 6.91074 10.2441C7.06702 10.0878 7.27899 10 7.5 10C7.72101 10 7.93297 10.0878 8.08926 10.2441C8.24554 10.4004 8.33333 10.6123 8.33333 10.8333ZM7.5 15C7.27899 15 7.06702 14.9122 6.91074 14.7559C6.75446 14.5996 6.66667 14.3877 6.66667 14.1667C6.66667 13.9457 6.75446 13.7337 6.91074 13.5774C7.06702 13.4211 7.27899 13.3333 7.5 13.3333C7.72101 13.3333 7.93297 13.4211 8.08926 13.5774C8.24554 13.7337 8.33333 13.9457 8.33333 14.1667C8.33333 14.3877 8.24554 14.5996 8.08926 14.7559C7.93297 14.9122 7.72101 15 7.5 15ZM13.3333 9.16667C13.3333 8.50362 13.5967 7.86774 14.0656 7.3989C14.5344 6.93006 15.1703 6.66667 15.8333 6.66667H17.5C18.163 6.66667 18.7989 6.93006 19.2678 7.3989C19.7366 7.86774 20 8.50362 20 9.16667V17.5C20 18.163 19.7366 18.7989 19.2678 19.2678C18.7989 19.7366 18.163 20 17.5 20H15.8333C15.1703 20 14.5344 19.7366 14.0656 19.2678C13.5967 18.7989 13.3333 18.163 13.3333 17.5V9.16667Z" fill="#FCF8F8"/>
</svg>
