<svg width="21" height="20" viewBox="0 0 21 20" fill="none" xmlns="http://www.w3.org/2000/svg">
<path d="M10.0632 4.15075C11.6547 4.15075 13.1544 4.85628 14.2534 5.95921V5.96246C14.2534 5.43282 14.6097 5.03217 15.1022 5.03217H15.2273C16.0045 5.03217 16.1602 5.76507 16.1602 5.99634L16.1635 14.2276C16.1094 14.767 16.7205 15.0458 17.0599 14.6992C18.3791 13.3422 19.9602 7.7162 16.2384 4.45889C12.7674 1.41851 8.1088 1.92079 5.63194 3.62762C2.99938 5.44651 1.31665 9.46407 2.95117 13.2399C4.73618 17.3565 9.83908 18.5845 12.8762 17.3598C14.4136 16.739 15.1224 18.8145 13.5244 19.494C11.1159 20.5213 4.40393 20.4165 1.26909 14.9878C-0.84881 11.3207 -0.736758 4.86996 4.88276 1.52796C9.17785 -1.03033 14.8449 -0.321542 18.2612 3.24521C21.8312 6.97744 21.6247 13.9605 18.1394 16.6751C16.5609 17.9096 14.2169 16.709 14.2338 14.9103L14.2163 14.324C13.1172 15.4126 11.6547 16.051 10.0632 16.051C6.91467 16.051 4.14269 13.2784 4.14269 10.1331C4.14269 6.95399 6.91467 4.15205 10.0632 4.15205V4.15075ZM14.0234 9.90576C13.9042 7.60154 12.1941 6.21393 10.1277 6.21393H10.0495C7.66776 6.21393 6.34464 8.09014 6.34464 10.2172C6.34464 12.6022 7.94267 14.1083 10.0397 14.1083C12.3804 14.1083 13.9172 12.3957 14.0293 10.3696L14.0234 9.90576Z" fill="#FCF8F8"/>
</svg>
