<svg width="45" height="60" viewBox="0 0 45 60" fill="none" xmlns="http://www.w3.org/2000/svg">
<g clip-path="url(#clip0)">
<path d="M6.887 7.02676C6.887 7.62676 6.887 8.13676 6.887 8.66476C6.87094 9.37839 6.99664 10.0879 7.25651 10.7505C7.51638 11.4131 7.90501 12.0149 8.39893 12.5197C8.89284 13.0244 9.48178 13.4216 10.1301 13.6871C10.7785 13.9527 11.4728 14.0812 12.1711 14.0648C18.9701 14.0648 25.7729 14.0648 32.5796 14.0648C33.7468 14.0984 34.8897 13.7199 35.8158 12.9932C36.7419 12.2664 37.3946 11.2358 37.6642 10.0748C37.7883 9.3296 37.8473 8.57461 37.8403 7.81876C37.8403 7.57276 37.8403 7.32076 37.8403 7.03276H42.8132C43.0715 7.00852 43.3319 7.04289 43.5757 7.13339C43.8195 7.2239 44.0407 7.36832 44.2236 7.55633C44.4064 7.74434 44.5464 7.97129 44.6335 8.22099C44.7205 8.47068 44.7526 8.73695 44.7273 9.00076V58.0088C44.7571 58.2772 44.7274 58.5491 44.6403 58.8042C44.5533 59.0593 44.4111 59.2911 44.2245 59.4825C44.0378 59.6738 43.8114 59.8198 43.562 59.9095C43.3126 59.9992 43.0467 60.0304 42.7839 60.0008H1.93165C1.67142 60.028 1.40852 59.9956 1.16204 59.9061C0.915571 59.8165 0.691716 59.6719 0.506741 59.4829C0.321765 59.2939 0.180314 59.0651 0.0926626 58.8132C0.00501086 58.5614 -0.0266404 58.2927 7.93952e-06 58.0267V8.96476C-0.0202488 8.70552 0.0147068 8.44486 0.102468 8.20075C0.19023 7.95663 0.328713 7.73485 0.508386 7.55067C0.688058 7.36649 0.904651 7.22428 1.14326 7.13384C1.38186 7.04339 1.63681 7.00686 1.89055 7.02676H6.887ZM28.5226 40.8788L28.7809 40.4948C29.7873 39.0622 30.4709 37.4197 30.7825 35.6852C31.0942 33.9507 31.0262 32.1672 30.5834 30.4628C29.9861 28.0521 28.6838 25.8848 26.8501 24.25C25.0164 22.6152 22.7386 21.5905 20.3204 21.3128C18.6037 21.0656 16.8544 21.2213 15.2053 21.7682C13.5563 22.315 12.0508 23.2386 10.8031 24.4688C7.28037 27.8708 6.10612 32.0768 7.3567 36.8768C7.98688 39.1511 9.24527 41.1915 10.9811 42.7537C12.717 44.3158 14.8568 45.3335 17.1441 45.6848C20.2048 46.156 23.3243 45.3828 25.8336 43.5308C25.8679 43.4931 25.9101 43.4638 25.9571 43.4451C26.004 43.4264 26.0545 43.4188 26.1047 43.4228C26.155 43.4269 26.2037 43.4425 26.2472 43.4684C26.2907 43.4944 26.328 43.53 26.3561 43.5728C27.4716 44.7368 28.6048 45.8828 29.7321 47.0348L34.8225 52.2368C34.9688 52.4384 35.1557 52.6056 35.3706 52.7273C35.5855 52.8489 35.8234 52.9221 36.0682 52.9419C36.3131 52.9618 36.5593 52.9278 36.7903 52.8422C37.0212 52.7567 37.2316 52.6216 37.4072 52.4461C37.5827 52.2705 37.7195 52.0586 37.8083 51.8245C37.897 51.5904 37.9356 51.3396 37.9216 51.089C37.9076 50.8384 37.8412 50.5937 37.7269 50.3715C37.6126 50.1493 37.4531 49.9547 37.259 49.8008C35.1923 47.6648 33.1022 45.5468 31.0238 43.4228C30.2018 42.5588 29.3563 41.7308 28.5226 40.8788Z" fill="#78A797"/>
<path d="M22.3108 10.5424H12.2826C10.991 10.5424 10.3216 9.85839 10.3216 8.53239C10.3216 7.47039 10.3216 6.40839 10.3216 5.34639C10.3157 5.10477 10.3586 4.8645 10.4476 4.64059C10.5367 4.41668 10.6699 4.21393 10.8391 4.04501C11.0082 3.87609 11.2096 3.74463 11.4307 3.65884C11.6519 3.57304 11.8879 3.53476 12.1241 3.54639C13.7916 3.54639 15.459 3.54639 17.1264 3.54639C17.2365 3.55657 17.3464 3.52573 17.436 3.45957C17.5256 3.39341 17.5887 3.29638 17.6138 3.18639C18.0152 2.19508 18.7084 1.35588 19.5973 0.785052C20.4862 0.21422 21.5268 -0.0599956 22.575 0.000388656C23.5417 0.0213329 24.4815 0.329137 25.28 0.886302C26.0786 1.44347 26.7013 2.22594 27.0724 3.13839C27.1133 3.26006 27.194 3.36354 27.301 3.43133C27.408 3.49912 27.5347 3.52705 27.6595 3.51039C29.2917 3.51039 30.9239 3.51039 32.5561 3.51039C32.8023 3.49746 33.0484 3.53749 33.2786 3.6279C33.5087 3.71831 33.7177 3.85708 33.892 4.03522C34.0663 4.21337 34.2021 4.42694 34.2906 4.6621C34.379 4.89726 34.4182 5.14878 34.4056 5.40039C34.4056 6.49839 34.4056 7.59639 34.4056 8.70039C34.4155 8.94421 34.3759 9.1875 34.2891 9.41485C34.2023 9.64221 34.0703 9.8487 33.9015 10.0213C33.7326 10.1938 33.5306 10.3287 33.3081 10.4174C33.0856 10.506 32.8475 10.5466 32.609 10.5364L22.3108 10.5424Z" fill="#78A797"/>
<path d="M10.3217 33.4926C10.3263 31.7548 10.8349 30.0575 11.7831 28.615C12.7313 27.1726 14.0766 26.0497 15.6491 25.3882C17.2215 24.7268 18.9505 24.5565 20.6176 24.8988C22.2847 25.2412 23.8152 26.0808 25.0155 27.3117C26.2158 28.5426 27.0323 30.1094 27.3616 31.8142C27.6909 33.519 27.5184 35.2854 26.8658 36.89C26.2132 38.4947 25.1098 39.8657 23.695 40.8297C22.2803 41.7938 20.6176 42.3077 18.9172 42.3066C17.7864 42.305 16.667 42.0757 15.6229 41.6318C14.5788 41.188 13.6305 40.5382 12.8323 39.7197C12.0341 38.9011 11.4015 37.9299 10.9707 36.8614C10.5399 35.7929 10.3194 34.6482 10.3217 33.4926Z" fill="#78A797"/>
</g>
<defs>
<clipPath id="clip0">
<rect width="44.7273" height="60" fill="white"/>
</clipPath>
</defs>
</svg>
