<svg width="60" height="60" viewBox="0 0 60 60" fill="none" xmlns="http://www.w3.org/2000/svg">
<g clip-path="url(#clip0)">
<path d="M44.8721 45.8808C44.8721 48.0708 44.8721 50.2668 44.8721 52.4808C44.9154 53.5138 44.8833 54.5485 44.7761 55.5768C44.5941 56.8238 43.9647 57.9619 43.0052 58.7789C42.0457 59.5959 40.8217 60.0359 39.5616 60.0168C35.2652 60.0168 30.9687 60.0168 26.6783 60.0168C19.5856 60.0048 12.4929 59.9988 5.40016 59.9988C4.21224 60.0258 3.05006 59.6505 2.10236 58.9338C1.15465 58.2171 0.477071 57.2011 0.179642 56.0508C0.0596547 55.5864 -0.000835533 55.1086 -0.000375536 54.6288C-0.000375536 38.2088 -0.000375536 21.7828 -0.000375536 5.35084C-0.0170733 4.63936 0.11157 3.93196 0.377684 3.2719C0.643798 2.61184 1.04179 2.01301 1.54731 1.51203C2.05283 1.01106 2.65525 0.618467 3.31773 0.358283C3.9802 0.0980995 4.68879 -0.0242094 5.40016 -0.00116167H39.5196C40.2239 -0.01575 40.924 0.111715 41.5781 0.373624C42.2321 0.635534 42.8266 1.02652 43.3262 1.52324C43.8258 2.01996 44.2201 2.61223 44.4857 3.2647C44.7513 3.91717 44.8827 4.61647 44.8721 5.32084C44.8721 10.1208 44.8721 14.9408 44.8721 19.7808C44.8548 20.041 44.744 20.286 44.5601 20.4708C39.8076 25.2228 35.0491 29.9808 30.2847 34.7448C29.6198 35.3971 29.0772 36.1632 28.6825 37.0068C27.2363 40.1388 25.7602 43.2588 24.3141 46.3908C23.9636 47.0796 23.7692 47.837 23.7445 48.6094C23.7199 49.3817 23.8657 50.15 24.1716 50.8597C24.4775 51.5693 24.9359 52.2029 25.5144 52.7154C26.0928 53.2278 26.777 53.6066 27.5184 53.8248C28.7197 54.2038 30.0195 54.1182 31.1607 53.5848C34.161 52.1928 37.1613 50.7228 40.1916 49.3848C41.8718 48.6588 43.0959 47.4468 44.3381 46.2108L44.7761 45.7848L44.8721 45.8808ZM22.4779 14.8788H32.2949C33.405 14.8788 34.5151 14.8788 35.6252 14.8788C35.8622 14.879 36.0969 14.8312 36.315 14.7384C36.5331 14.6455 36.7302 14.5095 36.8944 14.3386C37.0586 14.1676 37.1865 13.9653 37.2705 13.7436C37.3544 13.5219 37.3927 13.2856 37.383 13.0488C37.3733 12.812 37.3158 12.5795 37.2139 12.3655C37.1121 12.1515 36.968 11.9602 36.7903 11.8033C36.6127 11.6464 36.4051 11.527 36.1801 11.4523C35.9552 11.3777 35.7174 11.3493 35.4812 11.3688H9.27055C8.80505 11.3999 8.37094 11.6145 8.06373 11.9656C7.75651 12.3167 7.60135 12.7754 7.63239 13.2408C7.66342 13.7063 7.8781 14.1404 8.22921 14.4475C8.58031 14.7547 9.03907 14.9099 9.50457 14.8788H22.4779ZM19.6996 24.2508H29.9006C30.1397 24.2617 30.3785 24.2235 30.6024 24.1388C30.8262 24.0541 31.0304 23.9246 31.2025 23.7582C31.3745 23.5918 31.5108 23.3921 31.6029 23.1712C31.695 22.9503 31.741 22.7129 31.7382 22.4736C31.7353 22.2343 31.6836 21.9981 31.5862 21.7795C31.4888 21.5608 31.3479 21.3644 31.1719 21.2022C30.9959 21.0399 30.7887 20.9153 30.5628 20.836C30.337 20.7567 30.0974 20.7243 29.8586 20.7408H10.7407C10.2606 20.7408 9.7806 20.7408 9.30055 20.7408C8.95922 20.7454 8.62743 20.8541 8.34965 21.0525C8.07187 21.2509 7.86138 21.5295 7.7464 21.8508C7.63525 22.1211 7.59398 22.4151 7.6264 22.7055C7.65882 22.996 7.76389 23.2736 7.9319 23.5127C8.09992 23.7519 8.32547 23.9449 8.58775 24.0739C8.85002 24.2029 9.14056 24.2637 9.43257 24.2508C12.8529 24.2568 16.2793 24.2508 19.6996 24.2508ZM16.8853 30.1128H9.45657C9.21745 30.0989 8.97798 30.1339 8.75288 30.2157C8.52778 30.2976 8.32178 30.4246 8.14753 30.589C7.97328 30.7533 7.83445 30.9515 7.73956 31.1714C7.64467 31.3913 7.59572 31.6283 7.59572 31.8678C7.59572 32.1073 7.64467 32.3443 7.73956 32.5643C7.83445 32.7842 7.97328 32.9824 8.14753 33.1467C8.32178 33.3111 8.52778 33.4381 8.75288 33.5199C8.97798 33.6018 9.21745 33.6368 9.45657 33.6228C14.4131 33.6228 19.3656 33.6228 24.3141 33.6228C24.6112 33.6158 24.9036 33.5463 25.1721 33.4188C25.5113 33.2503 25.7862 32.9757 25.9552 32.6368C26.1241 32.2979 26.1778 31.9131 26.1082 31.5408C26.0225 31.1416 25.8035 30.7834 25.4873 30.525C25.1711 30.2666 24.7764 30.1234 24.3681 30.1188L16.8853 30.1128Z" fill="#78A797"/>
<path d="M45.6046 24.2578L53.5254 32.1838C53.4638 32.2635 53.3977 32.3397 53.3274 32.4118C49.0509 36.6438 44.7685 40.8698 40.4801 45.0898C40.1637 45.4081 39.7967 45.6717 39.394 45.8698C36.2497 47.3578 33.0933 48.8158 29.943 50.2918C29.6468 50.4595 29.3099 50.5416 28.9697 50.5289C28.6296 50.5161 28.2997 50.4091 28.0168 50.2198C27.6587 49.9742 27.4045 49.6043 27.3036 49.182C27.2027 48.7596 27.2623 48.3148 27.4708 47.9338C28.0708 46.5598 28.7489 45.1918 29.391 43.8178C30.1951 42.0898 30.9751 40.3558 31.7912 38.6458C32.0599 38.1112 32.4124 37.6231 32.8353 37.1998C35.8716 34.1158 38.9379 31.0678 42.0042 28.0078C43.1203 26.8998 44.2345 25.7858 45.3466 24.6658C45.4474 24.5398 45.534 24.403 45.6046 24.2578Z" fill="#78A797"/>
<path d="M48.3168 21.6533C49.3429 20.6633 50.369 19.5353 51.5392 18.5873C52.1715 18.0981 52.9591 17.8537 53.7573 17.8989C54.5555 17.9441 55.3106 18.2759 55.8836 18.8333C56.9877 19.8713 58.0618 20.9393 59.0939 22.0493C59.6577 22.6647 59.9788 23.4638 59.9975 24.2981C60.0163 25.1324 59.7314 25.9452 59.1959 26.5853C58.9979 26.8313 58.7639 27.0473 58.5479 27.2753L56.2916 29.6333L48.3168 21.6533Z" fill="#78A797"/>
</g>
<defs>
<clipPath id="clip0">
<rect width="60" height="60" fill="white"/>
</clipPath>
</defs>
</svg>
