<svg width="53" height="60" viewBox="0 0 53 60" fill="none" xmlns="http://www.w3.org/2000/svg">
<g clip-path="url(#clip0)">
<path d="M0 54.114V5.886C0 4.32494 0.629308 2.82781 1.74948 1.72397C2.86966 0.62013 4.38894 0 5.97311 0L40.8802 0C42.4633 0.00159024 43.981 0.622423 45.0999 1.72609C46.2187 2.82976 46.8472 4.32597 46.8472 5.886V12.276C46.7539 12.282 46.6604 12.282 46.5671 12.276C43.9792 11.9189 41.3478 12.501 39.1631 13.914C38.994 14.0068 38.8025 14.0524 38.6091 14.046H7.55619H7.1726V17.538H35.6316C35.5464 17.736 35.4855 17.844 35.4429 17.964C35.1202 18.87 34.7731 19.764 34.4869 20.676C34.3956 20.982 34.286 21.084 33.9572 21.078H7.68406C7.12998 21.078 7.12998 21.078 7.12389 21.624V24.624H7.73277C16.4519 24.624 25.1792 24.624 33.9146 24.624C34.3286 24.624 34.4504 24.762 34.56 25.14C34.8157 26.01 35.1689 26.85 35.4672 27.702C35.5319 27.8578 35.605 28.01 35.6864 28.158H7.67797C7.16651 28.158 7.16042 28.158 7.16042 28.662C7.16042 29.52 7.16042 30.378 7.16042 31.236C7.16042 31.578 7.23958 31.68 7.59882 31.68C12.9042 31.68 18.2075 31.68 23.5088 31.68C28.1789 31.68 32.843 31.68 37.5131 31.68C37.8967 31.68 38.0002 31.782 38.0002 32.16C38.0002 36.708 38.0002 41.256 38.0002 45.804V46.344L38.4325 46.074C40.5757 44.67 42.7129 43.27 44.844 41.874C44.9277 41.8002 45.0361 41.7594 45.1484 41.7594C45.2607 41.7594 45.3691 41.8002 45.4529 41.874C45.8486 42.156 46.2748 42.396 46.6706 42.69C46.7435 42.7444 46.8044 42.8129 46.8494 42.8913C46.8944 42.9697 46.9227 43.0564 46.9324 43.146C46.9324 46.062 46.9324 50.556 46.9324 54.18C46.9148 55.74 46.2693 57.2294 45.1379 58.3207C44.0064 59.412 42.4816 60.016 40.8984 60H5.97311C4.38894 60 2.86966 59.3799 1.74948 58.276C0.629308 57.1722 0 55.6751 0 54.114H0ZM23.3201 10.53C25.8896 10.53 28.459 10.53 31.0346 10.53C31.3573 10.53 31.4669 10.446 31.4608 10.116C31.4608 9.204 31.4608 8.316 31.4608 7.386C31.4608 7.104 31.3817 7.002 31.0772 7.002H15.569C15.2707 7.002 15.1794 7.092 15.1855 7.38C15.1855 8.28 15.1855 9.18 15.1855 10.068C15.1855 10.422 15.2707 10.536 15.6421 10.53C18.1994 10.524 20.7567 10.53 23.3201 10.53ZM20.5497 42.456H7.15433V45.912H20.5497V42.456ZM7.15433 52.944C7.24255 52.9629 7.33212 52.9749 7.42224 52.98C10.5032 52.98 13.5841 52.98 16.6711 52.98C16.9634 52.98 17.0243 52.866 17.0182 52.608C17.0182 51.69 17.0182 50.766 17.0182 49.842C17.0182 49.524 16.9086 49.452 16.6102 49.452C13.6024 49.452 10.6006 49.452 7.59273 49.452C7.45269 49.452 7.31264 49.452 7.15433 49.452V52.944Z" fill="#78A797"/>
<path d="M45.0571 30.0001C43.618 29.9942 42.2131 29.5678 41.0199 28.7751C39.8267 27.9823 38.8989 26.8586 38.3538 25.5462C37.8086 24.2338 37.6707 22.7916 37.9573 21.4019C38.244 20.0123 38.9424 18.7376 39.9642 17.739C40.986 16.7405 42.2854 16.063 43.698 15.7921C45.1105 15.5213 46.5729 15.6693 47.9001 16.2175C49.2273 16.7656 50.3598 17.6893 51.1543 18.8717C51.9488 20.054 52.3697 21.442 52.3637 22.8601C52.3629 23.8026 52.1729 24.7356 51.8047 25.6054C51.4365 26.4753 50.8973 27.2647 50.2182 27.9284C49.539 28.592 48.7334 29.1167 47.8477 29.4723C46.9619 29.8278 46.0135 30.0072 45.0571 30.0001Z" fill="#78A797"/>
<path d="M41.5499 33C43.8511 33.7502 46.3362 33.7502 48.6373 33V39.702C48.4607 39.6 48.3268 39.534 48.205 39.45C47.2734 38.85 46.3357 38.25 45.4163 37.608C45.3255 37.5266 45.2072 37.4815 45.0845 37.4815C44.9618 37.4815 44.8434 37.5266 44.7526 37.608C43.8089 38.25 42.8529 38.868 41.897 39.492L41.5499 39.69V33Z" fill="#78A797"/>
</g>
<defs>
<clipPath id="clip0">
<rect width="52.3636" height="60" fill="white"/>
</clipPath>
</defs>
</svg>
