<svg width="56" height="60" viewBox="0 0 56 60" fill="none" xmlns="http://www.w3.org/2000/svg">
<g clip-path="url(#clip0)">
<path d="M12.1671 52.7458H2.07731C0.65287 52.7458 0 52.0918 0 50.6758V9.0838C0 7.7098 0.658805 7.0498 2.02983 7.0498H36.2046C37.5994 7.0498 38.2641 7.7158 38.2641 9.1198V50.6518C38.2641 52.0918 37.6053 52.7458 36.1749 52.7458C33.9967 52.7458 31.8185 52.7458 29.5631 52.7458V52.1458C29.5631 49.8118 29.5631 47.4838 29.5631 45.1498C29.571 44.7308 29.6767 44.3196 29.8718 43.9498C30.7922 42.3487 31.2786 40.5306 31.2821 38.6787C31.2855 36.8269 30.8059 35.0069 29.8914 33.4024C28.977 31.7978 27.6601 30.4653 26.0737 29.5395C24.4873 28.6136 22.6874 28.1271 20.8556 28.1289C19.0238 28.1307 17.2248 28.6209 15.6402 29.5499C14.0556 30.479 12.7413 31.814 11.8301 33.4204C10.9188 35.0268 10.4426 36.8478 10.4497 38.6996C10.4568 40.5514 10.9468 42.3686 11.8704 43.9678C12.0604 44.3196 12.1623 44.713 12.1671 45.1138C12.1968 47.4598 12.1671 49.8118 12.1671 52.1638V52.7458ZM19.1469 21.1018H11.4312C10.5171 21.1018 9.60312 21.1018 8.6891 21.1018C8.22946 21.1018 7.78865 21.2864 7.46363 21.615C7.13862 21.9435 6.95603 22.3891 6.95603 22.8538C6.95603 23.3185 7.13862 23.7641 7.46363 24.0927C7.78865 24.4212 8.22946 24.6058 8.6891 24.6058C8.87309 24.6058 28.477 24.6058 29.5572 24.6058C29.7888 24.6106 30.0191 24.5687 30.2345 24.4826C30.45 24.3964 30.6463 24.2678 30.812 24.1041C30.9778 23.9405 31.1096 23.7451 31.1999 23.5294C31.2901 23.3137 31.337 23.082 31.3377 22.8478C31.3269 22.3777 31.1345 21.9306 30.8018 21.6021C30.469 21.2735 30.0223 21.0897 29.5572 21.0898C29.391 21.0898 29.2248 21.0898 29.0586 21.0898L19.1469 21.1018ZM19.0935 17.5858C22.5299 17.5858 25.9723 17.5858 29.4088 17.5858C29.6479 17.604 29.8882 17.572 30.1145 17.4919C30.3408 17.4117 30.5482 17.2851 30.7238 17.12C30.8994 16.9549 31.0393 16.7549 31.1347 16.5325C31.2302 16.3101 31.2791 16.0702 31.2784 15.8278C31.2788 15.591 31.2313 15.3566 31.1389 15.139C31.0465 14.9214 30.9112 14.7251 30.7412 14.5622C30.5711 14.3993 30.37 14.2732 30.1501 14.1916C29.9302 14.1101 29.6961 14.0747 29.4622 14.0878H8.76626C8.53428 14.0797 8.30308 14.1191 8.08656 14.2037C7.87004 14.2883 7.67268 14.4162 7.50634 14.5799C7.34001 14.7436 7.20814 14.9395 7.11867 15.1561C7.02919 15.3726 6.98397 15.6052 6.98571 15.8398C6.98722 16.0732 7.0347 16.304 7.12538 16.5187C7.21606 16.7334 7.34813 16.9277 7.51388 17.0902C7.67963 17.2527 7.87573 17.3802 8.09076 17.4653C8.30578 17.5504 8.53541 17.5914 8.76626 17.5858C8.93244 17.5858 9.09269 17.5858 9.25888 17.5858H19.0935Z" fill="#78A797"/>
<path d="M41.7539 45.7263V38.7123C41.9498 38.7123 42.1397 38.7123 42.3475 38.7123C43.8669 38.7123 45.3922 38.7123 46.9116 38.7123C47.3697 38.7123 47.809 38.5283 48.1329 38.2009C48.4568 37.8734 48.6387 37.4293 48.6387 36.9663C48.6387 36.5032 48.4568 36.0591 48.1329 35.7316C47.809 35.4042 47.3697 35.2203 46.9116 35.2203C45.41 35.2203 43.9084 35.2203 42.4068 35.2203H41.8133V31.6443H43.8431C44.8343 31.6443 45.8195 31.6443 46.8107 31.6443C47.0496 31.6643 47.2899 31.634 47.5166 31.5554C47.7433 31.4767 47.9514 31.3514 48.1277 31.1873C48.3041 31.0232 48.4448 30.8239 48.5411 30.6021C48.6374 30.3802 48.6871 30.1405 48.6871 29.8983C48.6871 29.656 48.6374 29.4163 48.5411 29.1944C48.4448 28.9726 48.3041 28.7733 48.1277 28.6092C47.9514 28.4451 47.7433 28.3198 47.5166 28.2411C47.2899 28.1625 47.0496 28.1322 46.8107 28.1523C45.3685 28.1523 43.9203 28.1523 42.4721 28.1523H41.8192V24.6543C41.9854 24.6543 42.1635 24.6243 42.3356 24.6243H46.787C47.0324 24.6533 47.2811 24.6295 47.5168 24.5544C47.7525 24.4793 47.9698 24.3546 48.1544 24.1886C48.339 24.0225 48.4867 23.8188 48.5879 23.5909C48.6891 23.363 48.7414 23.1161 48.7414 22.8663C48.7414 22.6165 48.6891 22.3695 48.5879 22.1416C48.4867 21.9137 48.339 21.71 48.1544 21.5439C47.9698 21.3779 47.7525 21.2532 47.5168 21.1781C47.2811 21.103 47.0324 21.0792 46.787 21.1083C45.1429 21.1083 43.4989 21.1083 41.8014 21.1083V17.5923H42.3949C43.8965 17.5923 45.3981 17.5923 46.8997 17.5923C47.2519 17.6092 47.6006 17.5157 47.8981 17.3245C48.1956 17.1333 48.4273 16.8538 48.5616 16.5243C48.7026 16.2191 48.7486 15.8779 48.6935 15.5457C48.6384 15.2136 48.4848 14.9062 48.253 14.6643C48.0733 14.4635 47.8518 14.3056 47.6044 14.2018C47.3571 14.0981 47.0901 14.0511 46.8226 14.0643H41.7599V10.5783C41.9676 10.5783 42.1635 10.5483 42.3534 10.5483C43.8134 10.5483 45.2794 10.5483 46.7454 10.5483C46.9875 10.5679 47.231 10.5374 47.4609 10.4584C47.6909 10.3795 47.9024 10.2538 48.0825 10.0891C48.2626 9.92445 48.4075 9.72428 48.5083 9.50092C48.609 9.27755 48.6635 9.03571 48.6684 8.79026C48.6684 7.75826 47.885 7.06226 46.7217 7.05626H41.7183V5.57426C41.7183 4.19426 41.0477 3.52826 39.6885 3.52826H17.4078C17.369 2.83882 17.369 2.1477 17.4078 1.45826C17.4627 1.06671 17.651 0.706806 17.9403 0.440631C18.2296 0.174456 18.6018 0.0187084 18.9925 0.000259443C19.212 -0.0118052 19.4319 -0.0118052 19.6513 0.000259443H53.4166C55.0309 0.000259443 55.6482 0.600259 55.6482 2.23826V43.5543C55.6482 45.0783 55.0191 45.7263 53.5234 45.7263H41.7539Z" fill="#78A797"/>
<path d="M27.8182 38.6884C27.8182 40.0809 27.4096 41.4421 26.6441 42.5997C25.8786 43.7574 24.7906 44.6595 23.5177 45.1918C22.2449 45.7241 20.8445 45.8628 19.4937 45.5903C18.1429 45.3177 16.9024 44.6462 15.9292 43.6608C14.956 42.6753 14.2939 41.4201 14.0266 40.0541C13.7593 38.688 13.8989 37.2726 14.4277 35.9867C14.9564 34.7009 15.8506 33.6026 16.997 32.8307C18.1435 32.0588 19.4907 31.648 20.8681 31.6504C22.7115 31.6567 24.4775 32.4007 25.7798 33.7195C27.0822 35.0384 27.8151 36.8249 27.8182 38.6884ZM24.3224 38.6884C24.3283 37.9946 24.1303 37.3147 23.7535 36.7348C23.3768 36.1549 22.8382 35.7012 22.2061 35.431C21.574 35.1608 20.8768 35.0865 20.2028 35.2173C19.5288 35.3481 18.9084 35.6783 18.4202 36.1659C17.932 36.6535 17.598 37.2767 17.4605 37.9564C17.323 38.6361 17.3882 39.3418 17.6478 39.984C17.9075 40.6262 18.3498 41.1761 18.9189 41.5639C19.488 41.9517 20.1581 42.16 20.8444 42.1624C21.7581 42.1673 22.6369 41.8078 23.2902 41.162C23.9435 40.5161 24.3187 39.636 24.3343 38.7124L24.3224 38.6884Z" fill="#78A797"/>
<path d="M15.657 47.7842C17.2336 48.7129 19.0256 49.2021 20.8503 49.2021C22.675 49.2021 24.467 48.7129 26.0436 47.7842C26.0436 48.0362 26.0436 48.1922 26.0436 48.3842C26.0436 51.8202 26.0436 55.2622 26.0436 58.7102C26.0947 58.9449 26.0678 59.19 25.967 59.4077C25.8663 59.6253 25.6973 59.8033 25.4864 59.914C25.2754 60.0248 25.0342 60.0621 24.8002 60.0202C24.5661 59.9782 24.3523 59.8594 24.1918 59.6822C23.2362 59.0282 22.2569 58.4102 21.3192 57.7322C21.182 57.6036 21.0018 57.5321 20.8147 57.5321C20.6276 57.5321 20.4474 57.6036 20.3102 57.7322C19.3487 58.4102 18.3635 59.0462 17.3901 59.7062C17.2262 59.8607 17.0184 59.9591 16.7962 59.9877C16.5739 60.0162 16.3484 59.9734 16.1515 59.8652C15.9546 59.7571 15.7964 59.5891 15.6991 59.3851C15.6018 59.181 15.5705 58.9512 15.6095 58.7282C15.6095 55.2482 15.6095 51.7682 15.6095 48.2882C15.6392 48.1502 15.6511 48.0002 15.657 47.7842Z" fill="#78A797"/>
</g>
<defs>
<clipPath id="clip0">
<rect width="55.6364" height="60" fill="white"/>
</clipPath>
</defs>
</svg>
