<svg width="68" height="60" viewBox="0 0 68 60" fill="none" xmlns="http://www.w3.org/2000/svg">
<g clip-path="url(#clip0)">
<path d="M38.6467 26.8439H64.8831C65.1707 26.8378 65.4584 26.8559 65.7431 26.8979C66.0392 26.9372 66.3241 27.0372 66.5801 27.1918C66.8362 27.3463 67.0579 27.552 67.2315 27.7962C67.4051 28.0403 67.5269 28.3177 67.5893 28.6112C67.6518 28.9046 67.6535 29.2078 67.5945 29.5019C67.1167 31.9019 66.6151 34.3379 66.1253 36.7559C65.4365 40.1359 64.7497 43.5159 64.0649 46.8959C63.4139 50.0999 62.7868 53.3099 62.094 56.4959C61.8967 57.4967 61.3555 58.3959 60.5651 59.0364C59.7747 59.6769 58.7854 60.018 57.7701 59.9999C56.9698 59.9999 56.1695 59.9999 55.3811 59.9999H7.28616C6.66039 60.0353 6.03403 59.9417 5.44554 59.7251C4.85705 59.5084 4.31887 59.1732 3.86403 58.7399C3.3452 58.2593 2.95591 57.6546 2.73243 56.9821C2.50895 56.3096 2.45856 55.5913 2.58596 54.8939C2.80693 53.5499 3.09957 52.2179 3.36833 50.8859C4.04917 47.5019 4.734 44.1219 5.4228 40.7459C5.97225 38.0459 6.51573 35.3459 7.07713 32.6459C7.22863 31.7067 7.44211 30.7787 7.71617 29.8679C8.05216 28.9594 8.66473 28.1805 9.46674 27.6419C10.2688 27.1033 11.2194 26.8325 12.1835 26.8679C14.0229 26.8679 15.8624 26.8679 17.7019 26.8679L38.6467 26.8439Z" fill="#78A797"/>
<path d="M34.072 23.4297H14.7157C14.017 23.4297 14.017 23.4297 14.017 22.7517V2.20775C13.9641 1.73526 14.0823 1.25943 14.3498 0.867241C14.6174 0.475051 15.0165 0.192685 15.4742 0.0717491C15.6881 0.0247214 15.9063 0.000586725 16.1252 -0.000250904H52.1083C52.3964 -0.0289473 52.6873 0.00746417 52.9595 0.106316C53.2318 0.205169 53.4786 0.363958 53.6819 0.571052C53.8852 0.778147 54.0398 1.0283 54.1343 1.30319C54.2289 1.57808 54.2611 1.87075 54.2285 2.15975C54.2285 9.08375 54.2285 16.0077 54.2285 22.9318C54.2285 23.4058 54.0135 23.4358 53.6313 23.4358L34.072 23.4297ZM34.072 9.97175H47.1394C47.3484 9.97175 47.5574 9.97175 47.7724 9.97175C48.0584 9.94529 48.3327 9.84531 48.569 9.68143C48.8054 9.51755 48.9957 9.29529 49.1217 9.03607C49.2477 8.77685 49.3052 8.4894 49.2885 8.2014C49.2719 7.9134 49.1817 7.63457 49.0266 7.39175C48.8335 7.09996 48.5642 6.86721 48.2482 6.71904C47.9321 6.57087 47.5816 6.51299 47.2349 6.55175H21.0046C20.7508 6.54069 20.4965 6.55678 20.2461 6.59975C20.0192 6.657 19.8065 6.76078 19.6215 6.90458C19.4364 7.04837 19.283 7.22907 19.1708 7.43532C19.0586 7.64156 18.9901 7.86889 18.9696 8.10301C18.9491 8.33713 18.977 8.57299 19.0516 8.79575C19.1913 9.15386 19.4394 9.45886 19.7608 9.66771C20.0823 9.87656 20.4609 9.97871 20.8433 9.95975C25.2569 9.95975 29.6644 9.97175 34.0421 9.97175H34.072ZM34.1138 15.4078H21.0822C20.903 15.4078 20.7179 15.4078 20.5387 15.4078C20.2868 15.4296 20.0427 15.5067 19.8237 15.6338C19.6047 15.7609 19.4162 15.9347 19.2714 16.1431C19.1267 16.3514 19.0294 16.5892 18.9862 16.8395C18.9431 17.0898 18.9552 17.3466 19.0218 17.5917C19.1468 17.9836 19.4017 18.3206 19.744 18.5466C20.0863 18.7726 20.4954 18.874 20.903 18.8337H47.3305C47.4816 18.8459 47.6333 18.8459 47.7844 18.8337C48.2066 18.7819 48.5946 18.5747 48.8737 18.2523C49.1527 17.9298 49.303 17.515 49.2954 17.0877C49.285 16.8524 49.2273 16.6216 49.1258 16.4093C49.0243 16.197 48.8811 16.0075 48.7048 15.8522C48.5284 15.6969 48.3227 15.5791 48.0998 15.5058C47.877 15.4325 47.6417 15.4053 47.4081 15.4257L34.1138 15.4078Z" fill="#78A797"/>
<path d="M-6.14161e-06 49.836V18.894C-0.0516576 17.9939 0.171046 17.0994 0.638409 16.3297C1.10577 15.56 1.79558 14.9518 2.61586 14.586C3.29791 14.2857 4.0332 14.1265 4.77784 14.118C6.56953 14.052 8.36122 14.118 10.1529 14.082C10.5471 14.082 10.6307 14.232 10.6307 14.586C10.6307 17.426 10.6307 20.26 10.6307 23.088C10.6307 23.424 10.5531 23.586 10.1887 23.688C9.13674 23.9364 8.14591 24.3968 7.27636 25.0414C6.40681 25.686 5.67666 26.5014 5.1302 27.438C4.55563 28.4709 4.16933 29.5986 3.98949 30.768L2.32322 38.892L0.656947 47.076L0.101523 49.83L-6.14161e-06 49.836Z" fill="#78A797"/>
<path d="M63.2526 23.3993C63.0734 23.3993 62.9301 23.4353 62.7868 23.4353C61.234 23.4353 59.6871 23.4353 58.1343 23.4353C57.7282 23.4353 57.6147 23.3093 57.6267 22.9133C57.6267 22.0673 57.6267 21.2213 57.6267 20.3693C57.6267 20.0453 57.7163 19.9133 58.0627 19.9193C59.1735 19.9193 60.3023 19.8413 61.3176 20.4473C61.8516 20.7481 62.3059 21.1731 62.6426 21.6867C62.9793 22.2004 63.1885 22.7876 63.2526 23.3993Z" fill="#78A797"/>
</g>
<defs>
<clipPath id="clip0">
<rect width="67.6364" height="60" fill="white"/>
</clipPath>
</defs>
</svg>
