<svg width="60" height="60" viewBox="0 0 60 60" fill="none" xmlns="http://www.w3.org/2000/svg">
<g clip-path="url(#clip0)">
<path d="M-0.000291727 15.2335H13.2023C13.4786 15.2725 13.7602 15.2467 14.0248 15.1583C14.2894 15.0699 14.5298 14.9212 14.7271 14.7239C14.9244 14.5267 15.0731 14.2863 15.1616 14.0217C15.25 13.7572 15.2758 13.4757 15.2368 13.1995V-0.00053357H40.2077C40.9334 -0.030047 41.6572 0.0908947 42.3338 0.354683C43.0104 0.618471 43.6251 1.0194 44.1391 1.53224C44.6532 2.04508 45.0556 2.65874 45.3209 3.33461C45.5862 4.01048 45.7088 4.73394 45.6808 5.45947C45.6808 11.5595 45.6808 17.6615 45.6808 23.7655V24.2875C45.4948 24.1675 45.3688 24.0895 45.2428 23.9995C42.7139 22.122 39.6488 21.1061 36.499 21.1015C27.2972 21.0775 18.0953 21.0775 8.89349 21.1015C8.64893 21.0887 8.4044 21.1272 8.17557 21.2144C7.94674 21.3016 7.73866 21.4356 7.56465 21.6079C7.39064 21.7802 7.25455 21.9869 7.16508 22.2148C7.07561 22.4428 7.03475 22.6868 7.04512 22.9315C7.04512 25.9955 7.04512 29.0595 7.04512 32.1235C7.03113 32.3719 7.06988 32.6205 7.15881 32.8529C7.24774 33.0853 7.38484 33.2963 7.56111 33.4719C7.73738 33.6476 7.94882 33.784 8.18156 33.8721C8.41429 33.9603 8.66305 33.9982 8.91149 33.9835H21.2139L21.0699 37.4995H8.85148C8.50581 37.4802 8.1625 37.5669 7.86754 37.7482C7.57259 37.9294 7.34007 38.1964 7.20115 38.5135C7.0455 38.8139 6.98674 39.1552 7.03295 39.4904C7.07915 39.8256 7.22806 40.1383 7.4592 40.3855C7.64823 40.5949 7.88299 40.758 8.14526 40.8621C8.40753 40.9661 8.69026 41.0083 8.9715 40.9855C13.0583 40.9855 17.1391 40.9855 21.22 40.9855C21.4081 40.9636 21.5975 41.0131 21.7509 41.1242C21.9042 41.2353 22.0103 41.3999 22.0481 41.5855C22.4442 42.5635 22.9183 43.5115 23.3864 44.5315H8.92349C8.68662 44.5038 8.44661 44.5247 8.21806 44.5927C7.9895 44.6608 7.77717 44.7746 7.594 44.9272C7.41081 45.0799 7.26061 45.2682 7.15251 45.4808C7.04441 45.6933 6.98068 45.9256 6.9652 46.1635C6.94972 46.4014 6.9828 46.64 7.06244 46.8647C7.14208 47.0895 7.26661 47.2957 7.42846 47.4708C7.59031 47.6459 7.78609 47.7862 8.0039 47.8833C8.22171 47.9804 8.457 48.0322 8.69545 48.0355H26.0989C26.4293 48.022 26.7533 48.1286 27.0111 48.3355C28.8662 49.7971 31.0403 50.8002 33.3564 51.2631C35.6725 51.7261 38.0652 51.6357 40.3398 50.9995C40.5154 50.933 40.7072 50.9227 40.8889 50.97C41.0706 51.0173 41.2331 51.1198 41.354 51.2635C42.6622 52.6135 43.9885 53.9335 45.3268 55.2415C45.4423 55.3387 45.5247 55.4696 45.5623 55.6159C45.6 55.7621 45.591 55.9165 45.5368 56.0575C45.2365 57.2 44.5621 58.209 43.6212 58.9235C42.6803 59.638 41.5272 60.0168 40.3458 59.9995H5.53882C4.22564 60.0648 2.93548 59.6369 1.9217 58.7999C0.90792 57.9628 0.243784 56.7771 0.0597203 55.4755C0.0096749 55.1601 -0.0104186 54.8406 -0.000291727 54.5215V15.2335ZM28.7695 14.0335C26.0569 14.0335 23.3684 14.0335 20.6258 14.0335C20.3949 14.0335 20.1663 14.0789 19.9529 14.1673C19.7396 14.2556 19.5458 14.3851 19.3825 14.5484C19.2192 14.7116 19.0897 14.9054 19.0013 15.1187C18.913 15.332 18.8675 15.5606 18.8675 15.7915C18.8675 16.0223 18.913 16.2509 19.0013 16.4642C19.0897 16.6775 19.2192 16.8713 19.3825 17.0346C19.5458 17.1978 19.7396 17.3273 19.9529 17.4156C20.1663 17.504 20.3949 17.5495 20.6258 17.5495C23.0923 17.5495 25.5588 17.5495 28.0253 17.5495H36.7571C37.0278 17.5648 37.2984 17.5188 37.5489 17.4149C37.7993 17.311 38.023 17.1519 38.2033 16.9495C38.4402 16.7091 38.5977 16.402 38.6546 16.0694C38.7114 15.7368 38.665 15.3948 38.5214 15.0895C38.3911 14.7623 38.1622 14.4838 37.8665 14.2925C37.5708 14.1011 37.223 14.0064 36.8711 14.0215L28.7695 14.0335ZM28.6794 10.5175C31.416 10.5175 34.1465 10.5175 36.8771 10.5175C37.1072 10.5116 37.3339 10.4604 37.5443 10.3669C37.7546 10.2734 37.9445 10.1394 38.103 9.9725C38.2615 9.80563 38.3857 9.60918 38.4683 9.39435C38.5509 9.17953 38.5903 8.95054 38.5844 8.72047C38.5785 8.49039 38.5273 8.26373 38.4338 8.05343C38.3403 7.84313 38.2062 7.6533 38.0393 7.4948C37.8724 7.33629 37.676 7.21219 37.4611 7.12961C37.2462 7.04702 37.0172 7.00756 36.7871 7.01347H23.8845C22.7623 7.01347 21.646 7.01347 20.5298 7.01347C20.0651 7.01904 19.6216 7.20896 19.2969 7.54146C18.9722 7.87397 18.7929 8.32181 18.7985 8.78647C18.804 9.25113 18.994 9.69454 19.3266 10.0192C19.6591 10.3438 20.1071 10.523 20.5718 10.5175H28.6794Z" fill="#78A797"/>
<path d="M36.3192 48.0415C33.9996 48.0403 31.7325 47.3509 29.805 46.0608C27.8775 44.7706 26.3762 42.9376 25.4913 40.7938C24.6064 38.6501 24.3776 36.292 24.834 34.0182C25.2903 31.7444 26.4112 29.6571 28.0548 28.0206C29.6983 26.3841 31.7906 25.272 34.0667 24.8251C36.3429 24.3782 38.7004 24.6166 40.8409 25.5101C42.9815 26.4037 44.8087 27.9121 46.0912 29.8445C47.3737 31.7769 48.0538 34.0464 48.0455 36.3655C48.0313 39.4661 46.7897 42.4349 44.5923 44.6228C42.3949 46.8108 39.4204 48.0399 36.3192 48.0415Z" fill="#78A797"/>
<path d="M44.2948 49.428C46.2863 48.0867 47.9832 46.3534 49.2818 44.334C49.4258 44.46 49.5278 44.544 49.6179 44.634C52.7065 47.718 55.7951 50.808 58.8837 53.904C59.2213 54.229 59.4905 54.6182 59.6756 55.0487C59.8606 55.4792 59.9577 55.9424 59.9611 56.4109C59.9645 56.8795 59.8743 57.344 59.6956 57.7772C59.5169 58.2104 59.2534 58.6035 58.9207 58.9334C58.5879 59.2633 58.1925 59.5234 57.7577 59.6984C57.3229 59.8734 56.8576 59.9597 56.389 59.9523C55.9204 59.9449 55.458 59.8439 55.0289 59.6553C54.5999 59.4667 54.2129 59.1943 53.8907 58.854C51.8343 56.818 49.7799 54.764 47.7275 52.692C46.7313 51.696 45.7411 50.7 44.7269 49.692C44.5933 49.5879 44.4484 49.4993 44.2948 49.428Z" fill="#78A797"/>
<path d="M10.5741 30.4616V24.6416H26.5433L26.1532 25.0076C24.5857 26.4038 23.3337 28.1179 22.4804 30.0356C22.4354 30.1769 22.3423 30.298 22.2174 30.378C22.0925 30.458 21.9435 30.4918 21.7963 30.4736C18.1956 30.4736 14.6429 30.4736 11.0722 30.4736L10.5741 30.4616Z" fill="#78A797"/>
<path d="M11.6903 1.24219V11.6822H1.23621L11.6903 1.24219Z" fill="#78A797"/>
</g>
<defs>
<clipPath id="clip0">
<rect width="60" height="60" fill="white"/>
</clipPath>
</defs>
</svg>
