<svg width="50" height="60" viewBox="0 0 50 60" fill="none" xmlns="http://www.w3.org/2000/svg">
<g clip-path="url(#clip0)">
<path d="M10.5267 3.77386C10.5267 5.44186 10.5267 7.02586 10.5267 8.61586C10.5009 9.33831 10.6235 10.0584 10.8869 10.7313C11.1504 11.4043 11.5489 12.0157 12.058 12.5278C12.567 13.0398 13.1756 13.4414 13.8459 13.7077C14.5162 13.974 15.234 14.0993 15.9547 14.0759H33.1302C33.8508 14.1011 34.5689 13.9772 35.2396 13.7119C35.9103 13.4465 36.5193 13.0455 37.0286 12.5338C37.5379 12.022 37.9366 11.4106 38.1998 10.7375C38.4629 10.0645 38.5849 9.34427 38.5582 8.62186C38.5582 7.06186 38.4983 5.50786 38.4624 3.94786C38.4727 3.8831 38.4866 3.81899 38.5043 3.75586H47.0562C48.3787 3.75586 49.0909 4.45786 49.0909 5.77186V57.9719C49.1274 58.2437 49.1014 58.5202 49.015 58.7804C48.9286 59.0406 48.7841 59.2776 48.5924 59.4733C48.4007 59.6689 48.167 59.8181 47.909 59.9093C47.6511 60.0006 47.3757 60.0316 47.104 59.9999H1.99283C1.72292 60.0318 1.4493 60.0019 1.1926 59.9124C0.935892 59.8229 0.702806 59.6761 0.510914 59.4832C0.319021 59.2902 0.173331 59.0561 0.0848267 58.7984C-0.0036772 58.5408 -0.0326841 58.2664 -7.08457e-06 57.9959V5.79586C-7.08457e-06 4.45186 0.694196 3.75586 2.02276 3.75586H10.0719C10.2395 3.75586 10.4071 3.76786 10.5267 3.77386ZM32.3163 44.3339C32.1488 44.5139 32.0351 44.6399 31.9154 44.7599C29.0787 47.6039 26.2421 50.4519 23.4054 53.3039C23.2225 53.4617 23.0747 53.6562 22.9713 53.8749C22.8679 54.0935 22.8112 54.3314 22.805 54.5732C22.7988 54.8151 22.8432 55.0556 22.9353 55.2792C23.0273 55.5029 23.165 55.7048 23.3396 55.8719C23.6845 56.1922 24.141 56.3642 24.611 56.3507C25.081 56.3372 25.527 56.1395 25.8531 55.7999C26.2361 55.4339 26.6011 55.0499 26.9781 54.6779C30.0342 51.6139 33.0903 48.5499 36.1464 45.4859C36.389 45.2799 36.5751 45.0154 36.6872 44.7172C36.7992 44.419 36.8335 44.097 36.7868 43.7819C36.7219 43.4975 36.597 43.2304 36.4205 42.9986C36.244 42.7667 36.0199 42.5755 35.7634 42.4379C29.6193 38.3299 23.4832 34.2219 17.3551 30.1139C17.1815 29.9939 17.0139 29.8619 16.9661 29.8259L22.9506 23.7959C22.9506 24.0179 22.9506 24.2759 22.9506 24.5279C22.9409 25.0032 23.1193 25.4631 23.4467 25.8071C23.7741 26.1511 24.224 26.3513 24.6981 26.3639C24.9329 26.3664 25.1658 26.3213 25.3827 26.2313C25.5997 26.1413 25.7963 26.0082 25.9606 25.84C26.125 25.6719 26.2537 25.4722 26.3391 25.2528C26.4245 25.0335 26.4648 24.7992 26.4575 24.5639C26.4575 22.8539 26.4575 21.1379 26.4575 19.4279C26.465 19.1895 26.4236 18.952 26.3361 18.7303C26.2485 18.5085 26.1165 18.3071 25.9483 18.1384C25.7801 17.9697 25.5791 17.8374 25.3579 17.7496C25.1367 17.6618 24.8999 17.6204 24.6621 17.6279C22.9147 17.6279 21.1712 17.6279 19.4317 17.6279C19.1932 17.6139 18.9544 17.6489 18.7299 17.7308C18.5054 17.8126 18.2999 17.9396 18.1262 18.104C17.9524 18.2683 17.8139 18.4665 17.7193 18.6864C17.6246 18.9064 17.5758 19.1433 17.5758 19.3829C17.5758 19.6224 17.6246 19.8594 17.7193 20.0793C17.8139 20.2992 17.9524 20.4974 18.1262 20.6617C18.2999 20.8261 18.5054 20.9531 18.7299 21.035C18.9544 21.1168 19.1932 21.1518 19.4317 21.1379H20.3593L20.461 21.3359C20.2107 21.5223 19.9709 21.7226 19.7429 21.9359C17.4807 24.1959 15.2206 26.4599 12.9624 28.7279C12.6271 29.0148 12.4137 29.4193 12.3659 29.8587C12.3181 30.298 12.4394 30.7392 12.7051 31.0919C12.9536 31.3726 13.242 31.6152 13.5609 31.8119C18.7235 35.2639 23.9141 38.7299 29.1326 42.2099L32.3163 44.3339ZM19.2821 47.6039C19.2868 46.5603 18.9826 45.5387 18.408 44.6685C17.8334 43.7983 17.0142 43.1186 16.0541 42.7154C15.0941 42.3122 14.0362 42.2036 13.0146 42.4034C11.9929 42.6032 11.0534 43.1025 10.3148 43.8379C9.57628 44.5733 9.07195 45.5118 8.86568 46.5348C8.65941 47.5577 8.76047 48.6189 9.15607 49.5842C9.55166 50.5495 10.224 51.3755 11.088 51.9575C11.952 52.5395 12.9688 52.8515 14.0097 52.8539C15.4009 52.8507 16.7347 52.2978 17.7218 51.3149C18.7088 50.332 19.2695 48.9986 19.2821 47.6039ZM34.9555 28.9499C35.3924 29.4299 35.7095 29.7959 36.0447 30.1499C36.2053 30.3327 36.4013 30.4809 36.6208 30.5855C36.8403 30.6902 37.0787 30.749 37.3215 30.7586C37.5644 30.7681 37.8066 30.7281 38.0336 30.641C38.2606 30.5539 38.4675 30.4215 38.6419 30.2519C38.8121 30.0815 38.9452 29.8776 39.0326 29.653C39.12 29.4284 39.1599 29.188 39.1498 28.9471C39.1397 28.7062 39.0797 28.4701 38.9738 28.2536C38.8678 28.0372 38.7181 27.8452 38.5342 27.6899C38.1811 27.3419 37.7922 27.0359 37.3373 26.6159C37.8281 26.1659 38.223 25.8419 38.5821 25.4759C38.7616 25.3162 38.9063 25.121 39.007 24.9026C39.1077 24.6842 39.1623 24.4472 39.1674 24.2067C39.1724 23.9661 39.1278 23.7271 39.0364 23.5046C38.9449 23.2821 38.8086 23.081 38.636 22.9139C38.4609 22.75 38.2549 22.6229 38.0301 22.54C37.8054 22.4572 37.5663 22.4203 37.3271 22.4314C37.0878 22.4426 36.8532 22.5017 36.6371 22.6051C36.421 22.7086 36.2277 22.8544 36.0686 23.0339C35.7275 23.3819 35.4103 23.7659 34.9675 24.2339C34.5545 23.7599 34.2493 23.3639 33.9022 23.0339C33.7439 22.8538 33.5503 22.7083 33.3335 22.6063C33.1168 22.5044 32.8814 22.4482 32.6421 22.4412C32.4027 22.4343 32.1645 22.4767 31.9422 22.5659C31.7199 22.6551 31.5183 22.7891 31.3498 22.9597C31.1813 23.1302 31.0496 23.3337 30.9628 23.5574C30.876 23.7812 30.836 24.0204 30.8453 24.2603C30.8545 24.5001 30.9129 24.7355 31.0166 24.9519C31.1204 25.1682 31.2674 25.3609 31.4486 25.5179C31.7957 25.8659 32.1787 26.1839 32.6455 26.6039C32.1787 27.0239 31.8076 27.3239 31.4486 27.6599C31.254 27.8143 31.0942 28.0083 30.9797 28.2291C30.8652 28.4499 30.7986 28.6924 30.7843 28.9409C30.7699 29.1893 30.8082 29.4379 30.8965 29.6705C30.9848 29.903 31.1212 30.1142 31.2967 30.2902C31.4722 30.4661 31.6828 30.6028 31.9148 30.6914C32.1467 30.7799 32.3947 30.8183 32.6425 30.8039C32.8903 30.7895 33.1322 30.7227 33.3524 30.6079C33.5726 30.4931 33.7661 30.3329 33.9202 30.1379C34.2493 29.7839 34.5485 29.3999 34.9555 28.9499Z" fill="#78A797"/>
<path d="M24.5364 10.56H16.0683C14.7039 10.56 14.0216 9.882 14.0336 8.508C13.9897 7.10686 14.0297 5.70434 14.1533 4.308C14.3392 3.13629 14.9292 2.06706 15.8204 1.28647C16.7116 0.505889 17.8476 0.0633844 19.0307 0.036C22.7012 -0.012 26.3737 -0.012 30.0481 0.036C31.3514 0.0829703 32.5892 0.620224 33.5151 1.54082C34.4411 2.46142 34.9874 3.69785 35.0452 5.004C35.0931 6.27 35.0452 7.536 35.0452 8.802C35.0467 9.04334 34.9983 9.28236 34.9031 9.504C34.8078 9.72564 34.6677 9.92506 34.4917 10.0897C34.3157 10.2543 34.1076 10.3806 33.8804 10.4605C33.6533 10.5404 33.4121 10.5723 33.1721 10.554C30.2935 10.566 27.409 10.56 24.5364 10.56Z" fill="#78A797"/>
<path d="M14.0156 45.8282C14.3614 45.8248 14.7004 45.9239 14.9901 46.1131C15.2799 46.3023 15.5073 46.5731 15.6439 46.8916C15.7805 47.21 15.8202 47.5619 15.7579 47.9029C15.6956 48.2438 15.5341 48.5587 15.2938 48.808C15.0535 49.0572 14.7451 49.2297 14.4073 49.3036C14.0695 49.3776 13.7174 49.3498 13.3953 49.2237C13.0733 49.0976 12.7955 48.8789 12.5971 48.595C12.3987 48.3111 12.2884 47.9748 12.2801 47.6282C12.2738 47.3951 12.3139 47.1631 12.3981 46.9458C12.4823 46.7284 12.6089 46.5301 12.7705 46.3625C12.9322 46.1949 13.1256 46.0612 13.3394 45.9695C13.5532 45.8778 13.7831 45.8297 14.0156 45.8282Z" fill="#78A797"/>
</g>
<defs>
<clipPath id="clip0">
<rect width="49.0909" height="60" fill="white"/>
</clipPath>
</defs>
</svg>
