<svg width="60" height="60" viewBox="0 0 60 60" fill="none" xmlns="http://www.w3.org/2000/svg">
<g clip-path="url(#clip0)">
<path d="M27.2388 52.4934H7.07076C5.46938 52.5422 3.90149 52.0288 2.63939 51.0423C1.3773 50.0558 0.500752 48.6586 0.161994 47.0934C0.0514084 46.6275 -0.00300022 46.1501 -7.08399e-05 45.6714C-7.08399e-05 32.7274 -7.08399e-05 19.7874 -7.08399e-05 6.85136C-0.00222926 5.23033 0.573654 3.66159 1.62422 2.42671C2.67479 1.19182 4.13126 0.37164 5.73222 0.113361C6.1524 0.0394087 6.5781 0.00127161 7.00473 -0.000639467H35.4861C37.1132 -0.0324381 38.6988 0.513948 39.9607 1.54126C41.2225 2.56857 42.0787 4.01014 42.3769 5.60936C42.4651 6.08412 42.5053 6.56655 42.4969 7.04936C42.4969 10.8714 42.4969 14.6934 42.4969 18.5154C42.5125 18.6557 42.473 18.7966 42.3868 18.9085C42.3006 19.0203 42.1744 19.0945 42.0347 19.1154C39.8139 19.8634 37.607 20.6234 35.4141 21.3954C35.0419 21.5274 34.8139 21.5454 34.5918 21.1434C34.3967 20.8044 34.1161 20.5224 33.7781 20.3255C33.44 20.1287 33.0562 20.0238 32.665 20.0214H10.204C9.87325 19.9858 9.53872 20.0167 9.22013 20.1125C8.90155 20.2082 8.60537 20.3667 8.34909 20.5788C8.0928 20.7908 7.88159 21.0519 7.72793 21.3469C7.57427 21.6418 7.48126 21.9645 7.45439 22.296C7.42753 22.6274 7.46736 22.9609 7.57152 23.2767C7.67568 23.5925 7.84208 23.8843 8.06088 24.1348C8.27968 24.3853 8.54646 24.5894 8.84547 24.7351C9.14448 24.8809 9.46967 24.9653 9.80185 24.9834C10.0119 24.9834 10.228 24.9834 10.4441 24.9834H26.2664L26.3145 25.0854C25.5642 25.7441 24.9523 26.5454 24.5144 27.4425C24.0764 28.3396 23.8212 29.3148 23.7634 30.3114C22.8091 29.8314 21.7946 29.9994 20.8163 29.9994C17.2148 29.9994 13.6134 29.9994 10.0119 29.9994C9.34969 30.0057 8.7171 30.2748 8.25332 30.7474C7.78955 31.22 7.53258 31.8574 7.53894 32.5194C7.54531 33.1813 7.81449 33.8137 8.28728 34.2773C8.76006 34.7409 9.39771 34.9977 10.06 34.9914C10.9783 34.9914 11.9027 34.9914 12.8271 34.9914C15.7142 34.9914 18.6014 34.9914 21.4885 34.9914C22.2148 34.9914 22.9411 34.8954 23.7274 34.8354C23.7274 34.8774 23.7274 35.0274 23.7274 35.1774C23.7274 37.0974 23.7274 39.0234 23.7274 40.9494C23.7731 44.8648 24.8899 48.693 26.9567 52.0194L27.2388 52.4934ZM15.0059 14.9994C16.6506 14.9994 18.2952 14.9994 19.9399 14.9994C20.3767 14.9855 20.8059 14.8813 21.2004 14.6934C21.6785 14.4475 22.0602 14.0484 22.2844 13.56C22.5086 13.0715 22.5623 12.522 22.4369 11.9994C22.318 11.4239 21.9989 10.9091 21.5363 10.5466C21.0736 10.1841 20.4973 9.99729 19.9099 10.0194C16.6326 10.0194 13.3613 10.0194 10.084 10.0194C9.77806 10.0189 9.47408 10.0675 9.1836 10.1634C8.63135 10.3597 8.16604 10.7444 7.86955 11.2498C7.57305 11.7553 7.46435 12.349 7.56257 12.9266C7.66079 13.5043 7.95964 14.0288 8.40655 14.4079C8.85346 14.787 9.41979 14.9964 10.0059 14.9994C11.6626 14.9994 13.3193 14.9994 15.0059 14.9994Z" fill="#78A797"/>
<path d="M59.988 36.21C59.988 37.572 59.988 38.94 59.988 40.302C60.0712 44.431 58.6649 48.452 56.0264 51.63C53.1867 55.1121 49.5763 57.8871 45.4802 59.736C45.1435 59.9031 44.7727 59.99 44.3968 59.99C44.0209 59.99 43.6501 59.9031 43.3134 59.736C39.1616 57.8848 35.5052 55.0809 32.6411 51.552C30.5764 49.0211 29.2659 45.9604 28.8596 42.72C28.7765 41.991 28.7384 41.2576 28.7455 40.524C28.7455 37.38 28.7455 34.242 28.7455 31.098C28.7455 29.502 29.3097 28.734 30.8224 28.224C34.98 26.816 39.1337 25.408 43.2833 24C43.9913 23.7448 44.7662 23.7448 45.4742 24L58.0793 28.284C58.6721 28.427 59.1937 28.7785 59.5486 29.2743C59.9034 29.77 60.068 30.3769 60.012 30.984C60.024 32.712 59.988 34.458 59.988 36.21ZM43.4754 42.426L43.1273 42.096C42.2689 41.232 41.4166 40.368 40.5402 39.516C40.0722 39.0489 39.4377 38.7869 38.7764 38.7874C38.1151 38.788 37.4811 39.0512 37.0138 39.519C36.5466 39.9868 36.2844 40.621 36.285 41.2821C36.2855 41.9432 36.5488 42.5769 37.0168 43.044C38.6575 44.696 40.3021 46.34 41.9508 47.976C42.1992 48.2417 42.5036 48.449 42.842 48.5827C43.1804 48.7164 43.5443 48.7733 43.9073 48.7491C44.2704 48.725 44.6236 48.6205 44.9413 48.4432C45.259 48.2659 45.5333 48.0203 45.7443 47.724C48.2593 44.4 50.7563 41.064 53.2533 37.728C53.4433 37.4836 53.583 37.204 53.6644 36.9054C53.7457 36.6067 53.7672 36.295 53.7275 35.988C53.6697 35.4881 53.4623 35.0172 53.1326 34.6369C52.8028 34.2566 52.366 33.9845 51.8792 33.8562C51.3924 33.7279 50.8782 33.7494 50.4037 33.9177C49.9293 34.0861 49.5166 34.3936 49.2197 34.8L43.8176 41.958C43.7275 42.108 43.6135 42.246 43.4754 42.426Z" fill="#78A797"/>
</g>
<defs>
<clipPath id="clip0">
<rect width="60" height="60" fill="white"/>
</clipPath>
</defs>
</svg>
